<svg width="43" height="42" viewBox="0 0 43 42" fill="none" xmlns="http://www.w3.org/2000/svg">
<path d="M1.51099 21C1.51099 31.7868 10.4196 40.5 21.1718 40.5C31.9239 40.5 40.8326 31.7868 40.8326 21C40.8326 10.2132 31.9239 1.5 21.1718 1.5C10.4196 1.5 1.51099 10.2132 1.51099 21Z" stroke="white" stroke-width="3"/>
<g clip-path="url(#clip0_2001_91)">
<path d="M28.9238 11H14.0762C12.3801 11 11 12.3144 11 13.9297V28.0703C11 29.6856 12.3801 31 14.0762 31H20.2695V23.9297H17.8086V20.4141H20.2695V18.0312C20.2695 16.0926 21.9254 14.5156 23.9609 14.5156H27.6934V18.0312H23.9609V20.4141H27.6934L27.0781 23.9297H23.9609V31H28.9238C30.6199 31 32 29.6856 32 28.0703V13.9297C32 12.3144 30.6199 11 28.9238 11Z" fill="white"/>
</g>
<defs>
<clipPath id="clip0_2001_91">
<rect width="21" height="20" fill="white" transform="translate(11 11)"/>
</clipPath>
</defs>
</svg>
