<svg width="43" height="42" viewBox="0 0 43 42" fill="none" xmlns="http://www.w3.org/2000/svg">
<path d="M1.5 21C1.5 31.7868 10.4086 40.5 21.1608 40.5C31.913 40.5 40.8216 31.7868 40.8216 21C40.8216 10.2132 31.913 1.5 21.1608 1.5C10.4086 1.5 1.5 10.2132 1.5 21Z" stroke="white" stroke-width="3"/>
<g clip-path="url(#clip0_2001_93)">
<path d="M27.9238 11H13.0762C11.3801 11 10 12.3144 10 13.9297V28.0703C10 29.6856 11.3801 31 13.0762 31H27.9238C29.6199 31 31 29.6856 31 28.0703V13.9297C31 12.3144 29.6199 11 27.9238 11ZM20.541 26.2344C17.4878 26.2344 15.0039 23.8688 15.0039 20.9609C15.0039 18.0531 17.4878 15.6875 20.541 15.6875C23.5943 15.6875 26.0781 18.0531 26.0781 20.9609C26.0781 23.8688 23.5943 26.2344 20.541 26.2344ZM26.6934 16.8594C25.6757 16.8594 24.8477 16.0708 24.8477 15.1016C24.8477 14.1323 25.6757 13.3438 26.6934 13.3438C27.7111 13.3438 28.5391 14.1323 28.5391 15.1016C28.5391 16.0708 27.7111 16.8594 26.6934 16.8594Z" fill="white"/>
<path d="M26.6934 14.5156C26.3539 14.5156 26.0781 14.7782 26.0781 15.1016C26.0781 15.4249 26.3539 15.6875 26.6934 15.6875C27.0329 15.6875 27.3086 15.4249 27.3086 15.1016C27.3086 14.7782 27.0329 14.5156 26.6934 14.5156Z" fill="white"/>
<path d="M20.541 16.8594C18.1666 16.8594 16.2344 18.6996 16.2344 20.9609C16.2344 23.2223 18.1666 25.0625 20.541 25.0625C22.9154 25.0625 24.8477 23.2223 24.8477 20.9609C24.8477 18.6996 22.9154 16.8594 20.541 16.8594Z" fill="white"/>
</g>
<defs>
<clipPath id="clip0_2001_93">
<rect width="21" height="20" fill="white" transform="translate(10 11)"/>
</clipPath>
</defs>
</svg>
