<svg width="43" height="42" viewBox="0 0 43 42" fill="none" xmlns="http://www.w3.org/2000/svg">
<path d="M2.04639 21C2.04639 31.7868 10.955 40.5 21.7072 40.5C32.4593 40.5 41.368 31.7868 41.368 21C41.368 10.2132 32.4593 1.5 21.7072 1.5C10.955 1.5 2.04639 10.2132 2.04639 21Z" stroke="white" stroke-width="3"/>
<g clip-path="url(#clip0_2001_90)">
<path d="M19.8344 29.2048C18.9263 29.2048 17.9916 29.1347 17.0513 28.9944C15.3952 28.7469 13.7186 27.9218 13.2442 27.6748L12 27.0269L13.3471 26.605C14.8197 26.1439 15.7154 25.8578 16.8243 25.4098C15.714 24.8977 14.8583 23.9765 14.4463 22.7857L14.133 21.8796L14.39 21.917C14.1463 21.6831 13.9538 21.4457 13.8047 21.2298C13.2742 20.4624 12.9933 19.5248 13.0531 18.7212L13.1121 17.9304L13.6092 18.1138C13.3995 17.7366 13.2479 17.3337 13.1588 16.9115C12.9418 15.8819 13.1234 14.788 13.6706 13.8314L14.1036 13.0743L14.6828 13.7368C16.5146 15.8324 18.8347 17.0756 21.5883 17.4395C21.4759 16.7011 21.5601 15.9885 21.8391 15.3498C22.1638 14.6061 22.7416 13.9754 23.5093 13.5259C24.362 13.0268 25.396 12.785 26.4209 12.8449C27.5083 12.9085 28.4956 13.2966 29.2797 13.9678C29.6626 13.8731 29.9447 13.7719 30.3261 13.6352C30.5555 13.5529 30.8157 13.4595 31.1412 13.3527L32.3409 12.9591L31.5586 15.087C31.6102 15.0829 31.6634 15.0794 31.719 15.0771L33.0001 15.0219L32.2429 16.0075C32.1995 16.0639 32.1884 16.0799 32.173 16.1021C32.112 16.1896 32.0361 16.2986 30.9967 17.6203C30.7365 17.9513 30.6066 18.3823 30.6308 18.8343C30.7229 20.5518 30.5017 22.1058 29.9728 23.4528C29.4726 24.7272 28.6975 25.8207 27.6692 26.7028C26.3967 27.7941 24.7742 28.5413 22.8465 28.9234C21.9009 29.1108 20.8855 29.2048 19.8344 29.2048V29.2048Z" fill="white"/>
</g>
<defs>
<clipPath id="clip0_2001_90">
<rect width="21" height="20" fill="white" transform="translate(12 11)"/>
</clipPath>
</defs>
</svg>
